# This file uses centimeters as units for non-parametric coordinates.

mtllib SM_Bush.mtl
g default
v 0.000000 357.700439 125.776283
v 0.000000 10.086594 106.490814
v -0.000000 391.227844 -102.496277
v -0.000000 0.000000 -145.472961
v 0.000000 413.058411 0.000000
v -0.000000 0.000000 0.000000
v -0.000000 72.551086 203.668457
v -0.000000 58.798965 0.000000
v -0.000000 61.648087 -219.696075
v 0.000000 278.461914 197.148270
v 0.000000 328.450989 0.000000
v 0.000000 328.450989 -153.343826
v -0.000000 149.356461 245.591782
v -0.000000 149.356461 0.000000
v -0.000000 187.101654 -220.922058
vt 0.254669 0.803409
vt 0.292267 0.126086
vt 0.700202 0.869189
vt 0.783839 0.106130
vt 0.500085 0.911594
vt 0.499997 0.105126
vt 0.102260 0.246878
vt 0.499999 0.220134
vt 0.929035 0.225533
vt 0.115168 0.648900
vt 0.500000 0.746644
vt 0.799381 0.746550
vt 0.020427 0.396875
vt 0.500000 0.396850
vt 0.931386 0.470522
vn 1.000000 0.000000 -0.000000
vn 1.000000 -0.000000 -0.000000
vn 1.000000 -0.000000 -0.000000
vn 1.000000 0.000000 -0.000000
vn 1.000000 -0.000000 -0.000000
vn 1.000000 -0.000000 -0.000000
vn 1.000000 -0.000000 -0.000000
vn 1.000000 -0.000000 -0.000000
vn 1.000000 0.000000 -0.000000
vn 1.000000 0.000000 -0.000000
vn 1.000000 -0.000000 -0.000000
vn 1.000000 -0.000000 -0.000000
vn 1.000000 -0.000000 -0.000000
vn 1.000000 -0.000000 -0.000000
vn 1.000000 -0.000000 -0.000000
s 1
g pPlane1
usemtl lambert2SG
f 5/5/1 11/11/2 12/12/3 3/3/4
f 1/1/5 10/10/6 11/11/2 5/5/1
f 8/8/7 7/7/8 2/2/9 6/6/10
f 9/9/11 8/8/7 6/6/10 4/4/12
f 11/11/2 10/10/6 13/13/13 14/14/14
f 12/12/3 11/11/2 14/14/14 15/15/15
f 14/14/14 13/13/13 7/7/8 8/8/7
f 15/15/15 14/14/14 8/8/7 9/9/11
